{
	"asset":{
		"generator":"Khronos glTF Blender I/O v4.2.60",
		"version":"2.0"
	},
	"extensionsUsed":[
		"KHR_materials_specular"
	],
	"scene":0,
	"scenes":[
		{
			"name":"Scene",
			"nodes":[
				0
			]
		}
	],
	"nodes":[
		{
			"mesh":0,
			"name":"Text",
			"rotation":[
				0.7071068286895752,
				0,
				0,
				0.7071068286895752
			]
		}
	],
	"materials":[
		{
			"doubleSided":true,
			"extensions":{
				"KHR_materials_specular":{
					"specularFactor":0
				}
			},
			"name":"Material.002",
			"normalTexture":{
				"index":0
			},
			"pbrMetallicRoughness":{
				"baseColorTexture":{
					"index":1
				},
				"metallicRoughnessTexture":{
					"index":2
				}
			}
		}
	],
	"meshes":[
		{
			"name":"Text.003",
			"primitives":[
				{
					"attributes":{
						"POSITION":0,
						"NORMAL":1,
						"TEXCOORD_0":2
					},
					"indices":3,
					"material":0
				}
			]
		}
	],
	"textures":[
		{
			"sampler":0,
			"source":0
		},
		{
			"sampler":0,
			"source":1
		},
		{
			"sampler":0,
			"source":2
		}
	],
	"images":[
		{
			"mimeType":"image/png",
			"name":"rod_logo_nor",
			"uri":"rod_logo_nor.png"
		},
		{
			"mimeType":"image/png",
			"name":"rod_logo_base",
			"uri":"rod_logo_base.png"
		},
		{
			"mimeType":"image/png",
			"name":"rod_logo_metal-rod_logo_rough",
			"uri":"rod_logo_metal-rod_logo_rough.png"
		}
	],
	"accessors":[
		{
			"bufferView":0,
			"componentType":5126,
			"count":59397,
			"max":[
				7.4929070472717285,
				0.09970114380121231,
				0.008232205174863338
			],
			"min":[
				0.07660523802042007,
				-0.09970114380121231,
				-0.690590500831604
			],
			"type":"VEC3"
		},
		{
			"bufferView":1,
			"componentType":5126,
			"count":59397,
			"type":"VEC3"
		},
		{
			"bufferView":2,
			"componentType":5126,
			"count":59397,
			"type":"VEC2"
		},
		{
			"bufferView":3,
			"componentType":5123,
			"count":119700,
			"type":"SCALAR"
		}
	],
	"bufferViews":[
		{
			"buffer":0,
			"byteLength":712764,
			"byteOffset":0,
			"target":34962
		},
		{
			"buffer":0,
			"byteLength":712764,
			"byteOffset":712764,
			"target":34962
		},
		{
			"buffer":0,
			"byteLength":475176,
			"byteOffset":1425528,
			"target":34962
		},
		{
			"buffer":0,
			"byteLength":239400,
			"byteOffset":1900704,
			"target":34963
		}
	],
	"samplers":[
		{
			"magFilter":9729,
			"minFilter":9987
		}
	],
	"buffers":[
		{
			"byteLength":2140104,
			"uri":"ROD_Logo.bin"
		}
	]
}
