{
	"asset":{
		"generator":"Khronos glTF Blender I/O v4.2.60",
		"version":"2.0"
	},
	"scene":0,
	"scenes":[
		{
			"name":"Scene",
			"nodes":[
				0
			]
		}
	],
	"nodes":[
		{
			"mesh":0,
			"name":"Mesh_0"
		}
	],
	"materials":[
		{
			"doubleSided":true,
			"name":"Material_0",
			"pbrMetallicRoughness":{
				"baseColorTexture":{
					"index":0
				},
				"metallicFactor":0,
				"roughnessFactor":0.800000011920929
			}
		}
	],
	"meshes":[
		{
			"name":"Mesh_0",
			"primitives":[
				{
					"attributes":{
						"POSITION":0,
						"NORMAL":1,
						"TEXCOORD_0":2
					},
					"indices":3,
					"material":0
				}
			]
		}
	],
	"textures":[
		{
			"sampler":0,
			"source":0
		}
	],
	"images":[
		{
			"mimeType":"image/jpeg",
			"name":"Image_0",
			"uri":"Image_0.jpg"
		}
	],
	"accessors":[
		{
			"bufferView":0,
			"componentType":5126,
			"count":163360,
			"max":[
				1.003646969795227,
				0.9571400284767151,
				0.04585599899291992
			],
			"min":[
				-1.0009570121765137,
				-0.956413984298706,
				-0.04790300130844116
			],
			"type":"VEC3"
		},
		{
			"bufferView":1,
			"componentType":5126,
			"count":163360,
			"type":"VEC3"
		},
		{
			"bufferView":2,
			"componentType":5126,
			"count":163360,
			"type":"VEC2"
		},
		{
			"bufferView":3,
			"componentType":5125,
			"count":893031,
			"type":"SCALAR"
		}
	],
	"bufferViews":[
		{
			"buffer":0,
			"byteLength":1960320,
			"byteOffset":0,
			"target":34962
		},
		{
			"buffer":0,
			"byteLength":1960320,
			"byteOffset":1960320,
			"target":34962
		},
		{
			"buffer":0,
			"byteLength":1306880,
			"byteOffset":3920640,
			"target":34962
		},
		{
			"buffer":0,
			"byteLength":3572124,
			"byteOffset":5227520,
			"target":34963
		}
	],
	"samplers":[
		{
			"magFilter":9729,
			"minFilter":9987
		}
	],
	"buffers":[
		{
			"byteLength":8799644,
			"uri":"sleepless.bin"
		}
	]
}
